<svg width="28" height="15" viewBox="0 0 28 15" fill="none" xmlns="http://www.w3.org/2000/svg">
<rect width="28" height="15" rx="3" fill="white"/>
<path d="M9.12422 7.096C9.38022 7.21867 9.58289 7.39467 9.73222 7.624C9.88689 7.85333 9.96422 8.11733 9.96422 8.416C9.96422 8.864 9.80689 9.24 9.49222 9.544C9.17755 9.848 8.79355 10 8.34022 10H5.92422V4.4H8.16422C8.60155 4.4 8.97222 4.54667 9.27622 4.84C9.58022 5.13333 9.73222 5.496 9.73222 5.928C9.73222 6.424 9.52955 6.81333 9.12422 7.096ZM8.16422 5.096H6.66822V6.808H8.16422C8.39889 6.808 8.59622 6.72533 8.75622 6.56C8.91622 6.39467 8.99622 6.192 8.99622 5.952C8.99622 5.71733 8.91355 5.51733 8.74822 5.352C8.58822 5.18133 8.39355 5.096 8.16422 5.096ZM8.34022 9.304C8.59089 9.304 8.80155 9.216 8.97222 9.04C9.14289 8.864 9.22822 8.648 9.22822 8.392C9.22822 8.14133 9.14022 7.928 8.96422 7.752C8.79355 7.576 8.58555 7.488 8.34022 7.488H6.66822V9.304H8.34022ZM11.2855 8.32C11.3549 8.67733 11.5175 8.95467 11.7735 9.152C12.0349 9.34933 12.3549 9.448 12.7335 9.448C13.2615 9.448 13.6455 9.25333 13.8855 8.864L14.4775 9.2C14.0882 9.80267 13.5015 10.104 12.7175 10.104C12.0829 10.104 11.5655 9.90667 11.1655 9.512C10.7709 9.112 10.5735 8.608 10.5735 8C10.5735 7.39733 10.7682 6.896 11.1575 6.496C11.5469 6.096 12.0509 5.896 12.6695 5.896C13.2562 5.896 13.7335 6.104 14.1015 6.52C14.4749 6.93067 14.6615 7.42667 14.6615 8.008C14.6615 8.10933 14.6535 8.21333 14.6375 8.32H11.2855ZM12.6695 6.552C12.2962 6.552 11.9869 6.65867 11.7415 6.872C11.4962 7.08 11.3442 7.36 11.2855 7.712H13.9575C13.8989 7.33333 13.7495 7.04533 13.5095 6.848C13.2695 6.65067 12.9895 6.552 12.6695 6.552ZM17.5204 6.672H16.4564V8.84C16.4564 9.03733 16.4937 9.17867 16.5684 9.264C16.6484 9.344 16.7684 9.38667 16.9284 9.392C17.0884 9.392 17.2857 9.38667 17.5204 9.376V10C16.9124 10.08 16.4671 10.032 16.1844 9.856C15.9017 9.67467 15.7604 9.336 15.7604 8.84V6.672H14.9684V6H15.7604V5.088L16.4564 4.88V6H17.5204V6.672ZM21.4533 6H22.1493V10H21.4533V9.312C21.1066 9.84 20.6026 10.104 19.9413 10.104C19.3813 10.104 18.9039 9.90133 18.5093 9.496C18.1146 9.08533 17.9173 8.58667 17.9173 8C17.9173 7.41333 18.1146 6.91733 18.5093 6.512C18.9039 6.10133 19.3813 5.896 19.9413 5.896C20.6026 5.896 21.1066 6.16 21.4533 6.688V6ZM20.0293 9.432C20.4346 9.432 20.7733 9.296 21.0453 9.024C21.3173 8.74667 21.4533 8.40533 21.4533 8C21.4533 7.59467 21.3173 7.256 21.0453 6.984C20.7733 6.70667 20.4346 6.568 20.0293 6.568C19.6293 6.568 19.2933 6.70667 19.0213 6.984C18.7493 7.256 18.6133 7.59467 18.6133 8C18.6133 8.40533 18.7493 8.74667 19.0213 9.024C19.2933 9.296 19.6293 9.432 20.0293 9.432Z" fill="black"/>
</svg>
