<svg width="79" height="21" viewBox="0 0 79 21" fill="none" xmlns="http://www.w3.org/2000/svg">
<path d="M7.24565 20.351C5.48165 20.351 3.96965 19.937 2.70965 19.109C1.46765 18.281 0.594652 17.147 0.0906524 15.707L2.25065 14.465C2.98865 16.751 4.67165 17.894 7.29965 17.894C8.59565 17.894 9.58565 17.633 10.2697 17.111C10.9537 16.571 11.2957 15.86 11.2957 14.978C11.2957 14.078 10.9537 13.403 10.2697 12.953C9.58565 12.503 8.44265 12.026 6.84065 11.522C6.04865 11.27 5.44565 11.072 5.03165 10.928C4.61765 10.766 4.09565 10.532 3.46565 10.226C2.85365 9.902 2.39465 9.578 2.08865 9.254C1.78265 8.912 1.50365 8.471 1.25165 7.931C1.01765 7.391 0.900652 6.779 0.900652 6.095C0.900652 4.457 1.47665 3.161 2.62865 2.207C3.78065 1.235 5.18465 0.748998 6.84065 0.748998C8.33465 0.748998 9.63065 1.127 10.7287 1.883C11.8447 2.639 12.6817 3.638 13.2397 4.88L11.1337 6.095C10.3237 4.151 8.89265 3.179 6.84065 3.179C5.81465 3.179 4.98665 3.431 4.35665 3.935C3.72665 4.439 3.41165 5.123 3.41165 5.987C3.41165 6.815 3.70865 7.445 4.30265 7.877C4.89665 8.309 5.92265 8.759 7.38065 9.227C7.90265 9.389 8.27165 9.506 8.48765 9.578C8.70365 9.65 9.03665 9.776 9.48665 9.956C9.95465 10.136 10.2967 10.28 10.5127 10.388C10.7287 10.496 11.0167 10.649 11.3767 10.847C11.7547 11.045 12.0337 11.234 12.2137 11.414C12.3937 11.594 12.6007 11.819 12.8347 12.089C13.0867 12.341 13.2667 12.602 13.3747 12.872C13.4827 13.142 13.5727 13.457 13.6447 13.817C13.7347 14.159 13.7797 14.528 13.7797 14.924C13.7797 16.58 13.1767 17.903 11.9707 18.893C10.7647 19.865 9.18965 20.351 7.24565 20.351ZM23.4585 8.768H19.8675V16.085C19.8675 16.751 19.9935 17.228 20.2455 17.516C20.5155 17.786 20.9205 17.93 21.4605 17.948C22.0005 17.948 22.6665 17.93 23.4585 17.894V20C21.4065 20.27 19.9035 20.108 18.9495 19.514C17.9955 18.902 17.5185 17.759 17.5185 16.085V8.768H14.8455V6.5H17.5185V3.422L19.8675 2.72V6.5H23.4585V8.768ZM35.6336 6.5H37.9826V20H35.6336V18.056C34.6796 19.586 33.2216 20.351 31.2596 20.351C29.6756 20.351 28.4066 19.856 27.4526 18.866C26.4986 17.858 26.0216 16.499 26.0216 14.789V6.5H28.3706V14.654C28.3706 15.752 28.6676 16.607 29.2616 17.219C29.8556 17.813 30.6746 18.11 31.7186 18.11C32.8886 18.11 33.8336 17.75 34.5536 17.03C35.2736 16.292 35.6336 15.167 35.6336 13.655V6.5ZM52.7369 1.1H55.0859V20H52.7369V17.678C51.5669 19.46 49.8659 20.351 47.6339 20.351C45.7439 20.351 44.1329 19.667 42.8009 18.299C41.4689 16.913 40.8029 15.23 40.8029 13.25C40.8029 11.27 41.4689 9.596 42.8009 8.228C44.1329 6.842 45.7439 6.149 47.6339 6.149C49.8659 6.149 51.5669 7.04 52.7369 8.822V1.1ZM47.9309 18.083C49.2989 18.083 50.4419 17.624 51.3599 16.706C52.2779 15.77 52.7369 14.618 52.7369 13.25C52.7369 11.882 52.2779 10.739 51.3599 9.821C50.4419 8.885 49.2989 8.417 47.9309 8.417C46.5809 8.417 45.4469 8.885 44.5289 9.821C43.6109 10.739 43.1519 11.882 43.1519 13.25C43.1519 14.618 43.6109 15.77 44.5289 16.706C45.4469 17.624 46.5809 18.083 47.9309 18.083ZM59.8328 4.043C59.3828 4.043 59.0048 3.89 58.6988 3.584C58.3928 3.278 58.2398 2.909 58.2398 2.477C58.2398 2.045 58.3928 1.676 58.6988 1.37C59.0048 1.046 59.3828 0.884 59.8328 0.884C60.2648 0.884 60.6338 1.046 60.9398 1.37C61.2458 1.676 61.3988 2.045 61.3988 2.477C61.3988 2.909 61.2458 3.278 60.9398 3.584C60.6338 3.89 60.2648 4.043 59.8328 4.043ZM58.6448 20V6.5H60.9938V20H58.6448ZM75.7554 6.5H78.1044V20H75.7554V17.678C74.5854 19.46 72.8844 20.351 70.6524 20.351C68.7624 20.351 67.1514 19.667 65.8194 18.299C64.4874 16.913 63.8214 15.23 63.8214 13.25C63.8214 11.27 64.4874 9.596 65.8194 8.228C67.1514 6.842 68.7624 6.149 70.6524 6.149C72.8844 6.149 74.5854 7.04 75.7554 8.822V6.5ZM70.9494 18.083C72.3174 18.083 73.4604 17.624 74.3784 16.706C75.2964 15.77 75.7554 14.618 75.7554 13.25C75.7554 11.882 75.2964 10.739 74.3784 9.821C73.4604 8.885 72.3174 8.417 70.9494 8.417C69.5994 8.417 68.4654 8.885 67.5474 9.821C66.6294 10.739 66.1704 11.882 66.1704 13.25C66.1704 14.618 66.6294 15.77 67.5474 16.706C68.4654 17.624 69.5994 18.083 70.9494 18.083Z" fill="white"/>
</svg>
